<svg width="55" height="46" viewBox="0 0 55 46" fill="none" xmlns="http://www.w3.org/2000/svg">
<path d="M4.6224 37.1175H4.62253L4.62227 37.106L4.59865 36.0809H5.4067H5.9067V35.5809V34.6175H7.0932H7.5932H47.9509H48.4509H49.3919V35.5809V36.0809H49.8919H50.4467V37.1233V37.6233H50.9467H51.2549V38.1659H3.29591V37.6233H4.1224H4.6224V37.1233V37.1175ZM47.4509 33.6175H8.0932V10.8965V10.3965H7.63835L27.9144 0.830592L48.1904 10.3965H47.9509H47.4509V10.8965V33.6175Z" stroke="white" stroke-opacity="0.5"/>
<g filter="url(#filter0_d)">
<path fill-rule="evenodd" clip-rule="evenodd" d="M50.947 37.116H4.12259L4.11281 36.6918H50.947V37.116ZM49.8921 35.5716H5.40691V35.1474H49.8921V35.5716ZM47.9511 34.1134H7.59341V33.6891H47.9511V34.1134ZM47.9511 11.3557L7.59341 11.4134V10.9669L47.9511 10.9092V11.3557Z" fill="white" fill-opacity="0.9"/>
</g>
<g filter="url(#filter1_d)">
<path fill-rule="evenodd" clip-rule="evenodd" d="M47.951 11.2434L41.9283 12.0985V33.7879H36.265V11.6886C35.2113 11.8162 32.6165 12.133 30.1966 12.4487V33.7879H24.5331V11.3893L18.4647 12.0985V33.7879H12.8013V11.472L7.59331 12.0985V11.1614C7.59331 11.1614 11.4238 11.276 12.8013 11.3621V11.2369H18.4647V11.1614H25.1458L24.9429 11.2369H30.1966V11.3691L36.265 11.2467V11.2369H41.9283V11.1614L47.951 11.2363V11.2434Z" fill="white" fill-opacity="0.7"/>
</g>
<path d="M27.9142 9.41035C29.8923 9.41035 31.4958 7.83268 31.4958 5.88652C31.4958 3.94037 29.8923 2.3627 27.9142 2.3627C25.9362 2.3627 24.3326 3.94037 24.3326 5.88652C24.3326 7.83268 25.9362 9.41035 27.9142 9.41035Z" fill="#FFCF84"/>
<path fill-rule="evenodd" clip-rule="evenodd" d="M27.9143 3.13794C29.4561 3.13794 30.7079 4.36953 30.7079 5.88652C30.7079 7.4035 29.4561 8.63509 27.9143 8.63509C27.8517 8.63509 27.8008 8.68511 27.8008 8.74673C27.8008 8.80835 27.8517 8.85837 27.9143 8.85837C29.5814 8.85837 30.9349 7.52674 30.9349 5.88652C30.9349 4.24629 29.5814 2.91466 27.9143 2.91466C27.8517 2.91466 27.8008 2.96468 27.8008 3.0263C27.8008 3.08792 27.8517 3.13794 27.9143 3.13794Z" fill="#FD9909"/>
<path fill-rule="evenodd" clip-rule="evenodd" d="M27.9142 8.63509C26.3722 8.63509 25.1204 7.4035 25.1204 5.88652C25.1204 4.36953 26.3722 3.13794 27.9142 3.13794C27.9768 3.13794 28.0277 3.08792 28.0277 3.0263C28.0277 2.96468 27.9768 2.91466 27.9142 2.91466C26.247 2.91466 24.8936 4.24629 24.8936 5.88652C24.8936 7.52674 26.247 8.85837 27.9142 8.85837C27.9768 8.85837 28.0277 8.80835 28.0277 8.74673C28.0277 8.68511 27.9768 8.63509 27.9142 8.63509Z" fill="#FD9909"/>
<path fill-rule="evenodd" clip-rule="evenodd" d="M28.3456 9.38525L28.2723 8.8047C28.2645 8.74354 28.3088 8.68774 28.371 8.68013C28.4332 8.67254 28.4897 8.71601 28.4976 8.77717L28.57 9.35155C28.496 9.36506 28.4211 9.37632 28.3456 9.38525ZM29.0153 9.24067L28.8124 8.65159C28.7924 8.59323 28.8242 8.5298 28.8836 8.51004C28.9429 8.49025 29.0073 8.52158 29.0273 8.57992L29.229 9.16525C29.1589 9.19253 29.0877 9.2177 29.0153 9.24067ZM25.94 8.82653L26.2554 8.31618C26.2879 8.26353 26.3578 8.24679 26.4113 8.27881C26.4649 8.31082 26.4819 8.37955 26.4495 8.4322L26.1331 8.94391C26.0673 8.90674 26.0029 8.86755 25.94 8.82653ZM30.8612 7.88896L30.3399 7.50943C30.2898 7.47277 30.2791 7.40281 30.3163 7.35327C30.3535 7.30374 30.4246 7.2933 30.4749 7.32994L30.9846 7.70107C30.9456 7.76506 30.9043 7.82774 30.8612 7.88896ZM24.5105 6.9851L25.123 6.71388C25.18 6.68859 25.2474 6.71368 25.273 6.76986C25.2987 6.82606 25.2732 6.8922 25.2161 6.91749L24.5883 7.1955C24.5602 7.12644 24.5341 7.05631 24.5105 6.9851ZM31.3897 5.03205C31.4079 5.10399 31.424 5.17678 31.4376 5.25035L30.8337 5.39046C30.7729 5.40462 30.7116 5.3674 30.6973 5.30745C30.6828 5.24747 30.7207 5.1873 30.7815 5.17314L31.3897 5.03205ZM24.9548 3.90244L25.4945 4.24973C25.5469 4.28346 25.5617 4.3527 25.5274 4.40428C25.4931 4.45584 25.4228 4.47033 25.3704 4.43659L24.833 4.09071C24.8716 4.02658 24.9124 3.96379 24.9548 3.90244ZM25.3071 3.47169L25.746 3.78923C25.7963 3.82574 25.8072 3.89569 25.77 3.94531C25.733 3.99494 25.6618 4.00559 25.6114 3.96909L25.1564 3.63966C25.2047 3.58212 25.2551 3.5261 25.3071 3.47169ZM29.9845 3.01162C30.0462 3.05476 30.1066 3.09975 30.1654 3.14661L29.773 3.63334C29.734 3.68161 29.6625 3.6897 29.6135 3.6514C29.5645 3.61311 29.5563 3.54282 29.5951 3.49455L29.9845 3.01162ZM29.3768 2.66955C29.446 2.70012 29.5141 2.73281 29.5808 2.76739L29.3042 3.27792C29.2747 3.33229 29.2059 3.35288 29.1505 3.3239C29.0954 3.29489 29.0745 3.22722 29.104 3.17285L29.3768 2.66955ZM27.1112 2.45206L27.271 3.01249C27.2878 3.07181 27.2526 3.13348 27.1922 3.15012C27.1319 3.16677 27.0692 3.13212 27.0525 3.07277L26.8918 2.50893C26.9639 2.48776 27.037 2.46878 27.1112 2.45206Z" fill="#FD9909"/>
<path d="M26.9678 6.81002C27.2693 7.03576 27.6191 7.13997 28.0228 7.13246C28.5038 7.11256 28.7372 6.94027 28.7384 6.61511C28.731 6.35024 28.5661 6.19529 28.2438 6.15026C28.0932 6.13492 27.9323 6.11989 27.7557 6.10036C27.4387 6.06016 27.1923 5.95275 27.0219 5.78297C26.8461 5.60835 26.7572 5.39102 26.7499 5.13115C26.7412 4.82131 26.8377 4.56823 27.0496 4.37159C27.2512 4.17527 27.5435 4.07119 27.921 4.05449C28.3817 4.05022 28.7836 4.16281 29.1265 4.38728L28.8285 4.84167C28.5494 4.67525 28.2415 4.58976 27.9103 4.59502C27.7395 4.60031 27.5958 4.64478 27.4844 4.73326C27.3678 4.8219 27.3093 4.95376 27.3089 5.12384C27.3118 5.22878 27.3558 5.31746 27.4409 5.39985C27.5261 5.48224 27.6621 5.53305 27.8442 5.56242C27.9429 5.57437 28.0831 5.59003 28.2596 5.60457C28.6075 5.63881 28.8644 5.75089 29.0354 5.94067C29.2011 6.1256 29.29 6.34293 29.2972 6.5978C29.3007 7.27794 28.8758 7.63623 28.0328 7.67235C27.4895 7.68918 27.0141 7.53885 26.6118 7.22619L26.9678 6.81002Z" fill="#FD9909"/>
<path fill-rule="evenodd" clip-rule="evenodd" d="M27.6991 3.65903L27.541 8.05698L27.8066 8.06435L27.9648 3.66639L27.6991 3.65903Z" fill="#FD9909"/>
<path fill-rule="evenodd" clip-rule="evenodd" d="M28.1698 3.67235L28.0116 8.07031L28.2773 8.07768L28.4354 3.67972L28.1698 3.67235Z" fill="#FD9909"/>
<path fill-rule="evenodd" clip-rule="evenodd" d="M14.1221 22.7949L14.9156 27.1251L11.0233 27.9278L10.2441 23.5305L14.1221 22.7949Z" fill="white"/>
<path fill-rule="evenodd" clip-rule="evenodd" d="M10.374 23.6191L10.7898 25.9659C10.8006 26.0266 10.7593 26.0845 10.6976 26.0955C10.636 26.1063 10.5772 26.0659 10.5664 26.0053L10.1314 23.55C10.1207 23.4898 10.1612 23.4322 10.2222 23.4206L14.1001 22.6851C14.1298 22.6794 14.1605 22.6857 14.1854 22.7025C14.2102 22.7193 14.2272 22.7452 14.2327 22.7743L14.6223 24.9007C14.6333 24.9614 14.5923 25.0198 14.5308 25.0309C14.4691 25.0422 14.4102 25.002 14.3991 24.9415L14.0297 22.9257L10.374 23.6191Z" fill="black"/>
<path fill-rule="evenodd" clip-rule="evenodd" d="M14.7901 27.0375L14.406 24.9415C14.395 24.8808 14.4359 24.8226 14.4975 24.8113C14.559 24.8002 14.6181 24.8402 14.6293 24.9007L15.0329 27.1041C15.0439 27.1636 15.0045 27.2212 14.9441 27.2337L11.0519 28.0363C11.0218 28.0426 10.9907 28.0365 10.9653 28.0196C10.94 28.0027 10.9227 27.9764 10.9174 27.9468L10.5734 26.0053C10.5627 25.9446 10.6041 25.8865 10.6657 25.8757C10.7274 25.8647 10.7862 25.9051 10.7969 25.9659L11.1209 27.7941L14.7901 27.0375Z" fill="black"/>
<path fill-rule="evenodd" clip-rule="evenodd" d="M14.4889 26.8364L14.4365 26.5565L11.3046 27.1403L11.3571 27.4203L14.4889 26.8364ZM14.371 26.1928L14.3185 25.913L11.1866 26.4968L11.2392 26.7767L14.371 26.1928ZM14.253 25.5493L14.2004 25.2693L11.0687 25.8532L11.1212 26.1332L14.253 25.5493ZM14.135 24.9059L14.0825 24.6259L10.9507 25.2097L11.0032 25.4898L14.135 24.9059ZM14.017 24.2625L13.9645 23.9824L10.8327 24.5663L10.8852 24.8463L14.017 24.2625ZM13.899 23.619L13.8465 23.339L10.7146 23.9228L10.7673 24.2027L13.899 23.619Z" fill="black"/>
<path fill-rule="evenodd" clip-rule="evenodd" d="M14.7652 22.4995L17.1791 26.132L13.9487 28.37L11.5216 24.6709L14.7652 22.4995Z" fill="white"/>
<path fill-rule="evenodd" clip-rule="evenodd" d="M17.0909 26.1093L16.2222 24.8018C16.1951 24.7613 16.2068 24.706 16.2481 24.6788C16.2895 24.6514 16.345 24.6623 16.372 24.7031L17.2886 26.0825C17.3152 26.1226 17.3045 26.1768 17.2644 26.2045L14.0341 28.4425C14.0142 28.4564 13.9895 28.4616 13.9658 28.4572C13.9421 28.4527 13.9213 28.4389 13.9082 28.4189L12.8796 26.8512C12.8528 26.8103 12.8647 26.7553 12.9063 26.7282C12.9477 26.7013 13.0032 26.7124 13.03 26.7533L14.0086 28.2449L17.0909 26.1093Z" fill="black"/>
<path fill-rule="evenodd" clip-rule="evenodd" d="M11.6209 24.6945L12.9716 26.7526C12.9984 26.7933 12.9864 26.8485 12.945 26.8754C12.9034 26.9025 12.848 26.8912 12.8212 26.8505L11.4226 24.7193C11.396 24.6789 11.4075 24.6243 11.4483 24.597L14.6927 22.4259C14.7125 22.4126 14.7369 22.4075 14.7602 22.4121C14.7836 22.4165 14.8041 22.4302 14.8171 22.4498L16.3145 24.7026C16.3416 24.7434 16.3299 24.7984 16.2886 24.8258C16.2472 24.853 16.1917 24.8421 16.1647 24.8013L14.7166 22.6228L11.6209 24.6945Z" fill="black"/>
<path fill-rule="evenodd" clip-rule="evenodd" d="M16.6907 26.0294L16.5303 25.795L13.9082 27.5598L14.0687 27.7942L16.6907 26.0294ZM16.3242 25.4895L16.1638 25.2553L13.5416 27.0201L13.7023 27.2543L16.3242 25.4895ZM15.9577 24.9498L15.7971 24.7153L13.1752 26.4802L13.3357 26.7146L15.9577 24.9498ZM15.5913 24.4101L15.4307 24.1757L12.8087 25.9405L12.9692 26.1749L15.5913 24.4101ZM15.2248 23.8704L15.0642 23.636L12.4422 25.4008L12.6027 25.6352L15.2248 23.8704ZM14.8582 23.3307L14.6977 23.0963L12.0756 24.8611L12.2363 25.0953L14.8582 23.3307Z" fill="black"/>
<path d="M10.9809 38.7458C12.6381 38.7458 13.9815 37.3886 13.9815 35.7144C13.9815 34.0402 12.6381 32.6831 10.9809 32.6831C9.32367 32.6831 7.98024 34.0402 7.98024 35.7144C7.98024 37.3886 9.32367 38.7458 10.9809 38.7458Z" fill="#FFCF84"/>
<path fill-rule="evenodd" clip-rule="evenodd" d="M10.9811 33.3498C12.2728 33.3498 13.3216 34.4093 13.3216 35.7143C13.3216 37.0193 12.2728 38.0788 10.9811 38.0788C10.9286 38.0788 10.886 38.1218 10.886 38.1748C10.886 38.2278 10.9286 38.2708 10.9811 38.2708C12.3777 38.2708 13.5117 37.1253 13.5117 35.7143C13.5117 34.3033 12.3777 33.1578 10.9811 33.1578C10.9286 33.1578 10.886 33.2008 10.886 33.2538C10.886 33.3068 10.9286 33.3498 10.9811 33.3498Z" fill="#FD9909"/>
<path fill-rule="evenodd" clip-rule="evenodd" d="M10.981 38.0788C9.68918 38.0788 8.6404 37.0193 8.6404 35.7143C8.6404 34.4093 9.68918 33.3498 10.981 33.3498C11.0335 33.3498 11.0761 33.3068 11.0761 33.2538C11.0761 33.2008 11.0335 33.1578 10.981 33.1578C9.58424 33.1578 8.45042 34.3033 8.45042 35.7143C8.45042 37.1253 9.58424 38.2708 10.981 38.2708C11.0335 38.2708 11.0761 38.2278 11.0761 38.1748C11.0761 38.1218 11.0335 38.0788 10.981 38.0788Z" fill="#FD9909"/>
<path fill-rule="evenodd" clip-rule="evenodd" d="M11.3422 38.7236L11.2808 38.2242C11.2744 38.1716 11.3114 38.1236 11.3635 38.1171C11.4156 38.1105 11.463 38.1479 11.4696 38.2005L11.5303 38.6947C11.4683 38.7063 11.4055 38.716 11.3422 38.7236ZM11.9033 38.5993L11.7333 38.0925C11.7166 38.0423 11.7432 37.9877 11.793 37.9707C11.8426 37.9537 11.8966 37.9807 11.9134 38.0309L12.0824 38.5344C12.0236 38.5579 11.9639 38.5795 11.9033 38.5993ZM9.32686 38.243L9.59114 37.804C9.61833 37.7587 9.67689 37.7443 9.72176 37.7718C9.76663 37.7994 9.78089 37.8585 9.7537 37.9038L9.48866 38.344C9.43352 38.312 9.37953 38.2783 9.32686 38.243ZM13.4498 37.4365L13.0131 37.11C12.9711 37.0784 12.9621 37.0183 12.9933 36.9756C13.0245 36.933 13.084 36.924 13.1262 36.9556L13.5532 37.2748C13.5205 37.3299 13.4859 37.3838 13.4498 37.4365ZM8.12924 36.6589L8.6424 36.4256C8.69012 36.4038 8.74659 36.4254 8.76807 36.4738C8.78956 36.5221 8.76826 36.579 8.72035 36.6008L8.19446 36.8399C8.17088 36.7805 8.14902 36.7202 8.12924 36.6589ZM13.8926 34.9788C13.9078 35.0407 13.9213 35.1033 13.9327 35.1666L13.4268 35.2871C13.3758 35.2993 13.3245 35.2673 13.3125 35.2157C13.3004 35.1641 13.3321 35.1124 13.3831 35.1002L13.8926 34.9788ZM8.50151 34.0071L8.95364 34.3058C8.99756 34.3348 9.00992 34.3944 8.98121 34.4388C8.9525 34.4831 8.89356 34.4956 8.84964 34.4666L8.39941 34.169C8.43174 34.1139 8.46596 34.0599 8.50151 34.0071ZM8.79659 33.6365L9.1643 33.9097C9.20651 33.9411 9.21564 34.0013 9.18446 34.0439C9.15347 34.0866 9.09377 34.0958 9.05156 34.0644L8.67035 33.781C8.71084 33.7315 8.75305 33.6833 8.79659 33.6365ZM12.7153 33.2407C12.7671 33.2779 12.8176 33.3166 12.8669 33.3569L12.5381 33.7756C12.5054 33.8171 12.4455 33.8241 12.4045 33.7911C12.3634 33.7582 12.3566 33.6977 12.3891 33.6562L12.7153 33.2407ZM12.2062 32.9465C12.2642 32.9728 12.3212 33.0009 12.3771 33.0307L12.1453 33.4698C12.1206 33.5166 12.063 33.5343 12.0166 33.5094C11.9704 33.4844 11.9529 33.4262 11.9776 33.3794L12.2062 32.9465ZM10.3081 32.7594L10.442 33.2415C10.456 33.2925 10.4266 33.3456 10.376 33.3599C10.3254 33.3742 10.2729 33.3444 10.2589 33.2934L10.1243 32.8083C10.1847 32.7901 10.2459 32.7738 10.3081 32.7594Z" fill="#FD9909"/>
<path d="M21.4634 36.6717C21.9073 38.2287 23.553 39.1453 25.139 38.719C26.7251 38.2927 27.651 36.685 27.2071 35.128C26.7632 33.5711 25.1176 32.6545 23.5315 33.0807C21.9454 33.507 21.0195 35.1147 21.4634 36.6717Z" fill="#FFCF84"/>
<path fill-rule="evenodd" clip-rule="evenodd" d="M26.5683 35.3145C26.9172 36.5251 26.1897 37.7755 24.9446 38.1049C23.6995 38.4344 22.4054 37.7189 22.0564 36.5083C22.0422 36.4592 21.9897 36.4301 21.9391 36.4435C21.8885 36.4569 21.859 36.5077 21.8732 36.5568C22.2505 37.8658 23.6498 38.6393 24.996 38.2831C26.3422 37.9269 27.1288 36.5749 26.7515 35.266C26.7374 35.2168 26.6848 35.1877 26.6342 35.2011C26.5837 35.2145 26.5541 35.2653 26.5683 35.3145Z" fill="#FD9909"/>
<path fill-rule="evenodd" clip-rule="evenodd" d="M22.1023 36.4854C21.7533 35.2747 22.4808 34.0243 23.7259 33.6948C24.971 33.3654 26.2652 34.0808 26.6142 35.2916C26.6283 35.3407 26.6809 35.3698 26.7315 35.3564C26.782 35.343 26.8116 35.2922 26.7974 35.2431C26.4201 33.934 25.0208 33.1606 23.6746 33.5168C22.3283 33.873 21.5417 35.2248 21.919 36.5339C21.9332 36.5831 21.9858 36.6122 22.0363 36.5988C22.0869 36.5854 22.1165 36.5346 22.1023 36.4854Z" fill="#FD9909"/>
<path fill-rule="evenodd" clip-rule="evenodd" d="M21.5577 36.9966L22.0181 36.8133C22.0666 36.7939 22.1221 36.8169 22.1419 36.8643C22.1618 36.9118 22.1385 36.9658 22.09 36.9853L21.6344 37.1666C21.6072 37.1111 21.5815 37.0544 21.5577 36.9966ZM21.8229 37.4944L22.262 37.2069C22.3055 37.1785 22.3645 37.1899 22.3938 37.2326C22.423 37.2751 22.4114 37.3328 22.3678 37.3612L21.9316 37.647C21.8939 37.5975 21.8576 37.5466 21.8229 37.4944ZM21.4896 34.9755L21.9775 35.1144C22.0278 35.1287 22.0569 35.1803 22.0423 35.2295C22.0278 35.2787 21.9751 35.307 21.9248 35.2928L21.4356 35.1534C21.4517 35.0934 21.4697 35.034 21.4896 34.9755ZM23.3364 38.6607L23.5338 38.1669C23.5529 38.1193 23.608 38.0958 23.6568 38.1145C23.7056 38.1332 23.7297 38.1871 23.7106 38.2348L23.5176 38.7176C23.4566 38.7006 23.3961 38.6815 23.3364 38.6607ZM22.688 33.4483L23.0447 33.8736C23.0779 33.9131 23.0721 33.9718 23.0316 34.0042C22.9911 34.0366 22.9312 34.0308 22.8979 33.9911L22.5324 33.5553C22.5829 33.5181 22.6347 33.4824 22.688 33.4483ZM25.7968 38.461C25.7417 38.4909 25.6855 38.5194 25.6281 38.546L25.3809 38.0992C25.356 38.0542 25.3732 37.9978 25.4192 37.9735C25.4653 37.9491 25.5229 37.966 25.5479 38.011L25.7968 38.461ZM25.3153 33.1334L25.1484 33.6347C25.1322 33.6834 25.0786 33.71 25.0287 33.6941C24.9789 33.6782 24.9516 33.6257 24.9678 33.577L25.1341 33.0778C25.1952 33.0944 25.2556 33.1131 25.3153 33.1334ZM25.7459 33.3186L25.5814 33.7339C25.5624 33.7816 25.5074 33.8053 25.4585 33.7866C25.4097 33.7681 25.3854 33.7141 25.4043 33.6664L25.5751 33.2358C25.6329 33.2616 25.6899 33.2893 25.7459 33.3186ZM27.1474 36.9144C27.1255 36.9725 27.1018 37.0299 27.0762 37.0864L26.5909 36.8816C26.5427 36.8612 26.5204 36.8065 26.5411 36.7595C26.5618 36.7125 26.6177 36.6908 26.6658 36.7111L27.1474 36.9144ZM27.2951 36.3604C27.2852 36.4216 27.2733 36.4825 27.2595 36.5427L26.7799 36.4344C26.7288 36.4229 26.6969 36.373 26.7086 36.323C26.7203 36.2731 26.7713 36.242 26.8223 36.2536L27.2951 36.3604ZM26.9777 34.5236L26.5527 34.7709C26.5077 34.797 26.4494 34.7825 26.4225 34.7384C26.3956 34.6943 26.4103 34.6373 26.4554 34.6112L26.883 34.3625C26.9161 34.4149 26.9477 34.4686 26.9777 34.5236Z" fill="#FD9909"/>
<path fill-rule="evenodd" clip-rule="evenodd" d="M17.5226 13.7455C17.5147 13.7334 17.2059 13.7445 17.1819 13.743C16.8202 13.7209 16.4591 13.6861 16.0991 13.6454C14.9028 13.5104 13.4754 13.4174 12.4883 12.6669C11.3654 11.8132 12.3115 10.5592 13.5414 10.7912C15.0577 11.0772 16.2063 12.5553 17.509 13.2922" fill="black"/>
<path d="M18.7586 15.1919C19.5727 15.1919 20.2326 14.5426 20.2326 13.7416C20.2326 12.9407 19.5727 12.2914 18.7586 12.2914C17.9445 12.2914 17.2846 12.9407 17.2846 13.7416C17.2846 14.5426 17.9445 15.1919 18.7586 15.1919Z" fill="#ABD1CE"/>
<path fill-rule="evenodd" clip-rule="evenodd" d="M18.1156 14.299L17.6339 14.6792C17.4158 14.4264 17.2841 14.099 17.2841 13.7417C17.2841 12.9412 17.9446 12.2914 18.7582 12.2914C19.5115 12.2914 20.1335 12.8486 20.2216 13.5667C19.9751 13.5383 19.7704 13.3885 19.6052 13.123C19.5914 13.6641 19.1074 13.8707 18.5238 13.9767C18.4994 13.839 18.3745 13.734 18.2244 13.734C18.0568 13.734 17.9207 13.8649 17.9207 14.0261C17.9207 14.1505 18.0016 14.2569 18.1156 14.299Z" fill="black"/>
<path fill-rule="evenodd" clip-rule="evenodd" d="M27.8243 21.8494C27.8243 21.8494 34.1301 15.303 37.9883 15.5652C38.6064 15.6072 40.3677 15.8429 42.0693 17.0642C43.2971 17.9451 44.3464 18.9601 45.3647 19.9951C45.8628 20.5017 46.085 21.2122 45.962 21.9066C45.8392 22.6012 45.3863 23.196 44.7431 23.5073C43.817 23.9563 42.6251 24.3852 41.1622 24.6266C41.1622 24.6266 41.4225 25.0895 41.5841 25.3768C41.6685 25.5271 41.6674 25.7095 41.5812 25.8587C41.448 26.0822 41.1976 26.4224 40.7635 26.7603C40.7635 26.7603 40.7388 26.9192 40.7152 27.0706C40.704 27.1418 40.6646 27.2057 40.6053 27.2481C40.5461 27.2908 40.4723 27.3082 40.3999 27.2968C40.2894 27.2796 40.2052 27.1903 40.1957 27.0807C40.1903 27.0141 40.1934 26.9438 40.2052 26.8875C40.2052 26.8875 40.4857 24.987 38.9605 23.414C38.9605 23.414 38.5409 22.7667 39.1826 22.3512L41.5814 20.9302L40.0827 19.69C40.0827 19.69 39.7616 21.2428 37.9356 21.5831C37.1493 21.7298 35.6655 21.7755 34.7496 20.4028C34.7496 20.4028 29.9854 24.1276 28.733 25.6003C28.733 25.6003 28.5423 25.7798 28.3762 25.6635C28.2832 25.5983 28.1602 25.463 28.2968 25.258C28.2968 25.258 28.0726 25.4572 27.8751 25.3244C27.7435 25.2357 27.6421 25.062 27.7775 24.8579C27.7775 24.8579 27.5483 25.0642 27.3414 24.9184C27.202 24.82 27.1698 24.6465 27.2383 24.4486C27.2383 24.4486 26.996 24.6853 26.7897 24.548C26.6453 24.452 26.5757 24.2524 26.6742 24.1073L27.5896 22.8142L27.8243 21.8494Z" fill="#E9673C"/>
<path fill-rule="evenodd" clip-rule="evenodd" d="M40.6957 27.1376C40.695 27.13 40.6957 27.1224 40.697 27.1146C40.9235 25.9807 40.7197 24.7815 40.7197 24.7815C40.7116 24.7328 40.7449 24.6868 40.7944 24.6786C40.8437 24.6705 40.8906 24.7034 40.8988 24.752C40.8988 24.752 40.9517 25.0642 40.9746 25.523L41.285 25.6083C41.3332 25.6217 41.3615 25.6708 41.3479 25.7184C41.3345 25.766 41.2844 25.7936 41.236 25.7802L40.9821 25.7104C40.9893 25.9794 40.9848 26.2855 40.9546 26.6019C40.8952 26.6546 40.8316 26.7075 40.7635 26.7604C40.7635 26.7604 40.7388 26.9194 40.7152 27.0708C40.7116 27.094 40.705 27.1163 40.6957 27.1376Z" fill="#D9512E"/>
<path fill-rule="evenodd" clip-rule="evenodd" d="M30.4285 19.4451C32.6098 17.6071 35.7214 15.4111 37.9881 15.5652C38.6063 15.6072 40.3675 15.8429 42.0691 17.0642C43.2969 17.9451 44.3462 18.9601 45.3645 19.9951C45.8627 20.5017 46.0848 21.2122 45.9618 21.9066C45.8391 22.6012 45.3861 23.196 44.7429 23.5073C44.2861 23.7288 43.7648 23.9454 43.178 24.1369L41.0325 21.2553L41.5812 20.9302L40.0825 19.69C40.0825 19.69 39.7614 21.2428 37.9354 21.5831C37.1491 21.7298 35.6653 21.7755 34.7494 20.4028C34.7494 20.4028 33.8144 21.1336 32.6638 22.0763L30.4285 19.4451Z" fill="#D84B26"/>
<path fill-rule="evenodd" clip-rule="evenodd" d="M27.9988 25.3694L28.2639 25.0059C28.2929 24.9657 28.3499 24.9566 28.3905 24.9854C28.4311 25.0142 28.4404 25.07 28.4114 25.11C28.4114 25.11 28.2863 25.2739 28.2968 25.2585C28.2968 25.2585 28.1556 25.3839 27.9988 25.3694ZM27.4727 24.9693L27.746 24.5949C27.775 24.5549 27.832 24.5457 27.8726 24.5743C27.9132 24.6031 27.9225 24.659 27.8935 24.6991L27.7768 24.859C27.7662 24.8684 27.6284 24.9863 27.4727 24.9693ZM26.9111 24.5906L27.2122 24.1776C27.2415 24.1376 27.2982 24.1282 27.3389 24.157C27.3797 24.1858 27.389 24.2416 27.3597 24.2816L27.2365 24.4509C27.2183 24.4678 27.0697 24.6025 26.9111 24.5906Z" fill="#D9512E"/>
<path d="M37.6905 15.1726C38.4399 15.1726 39.0473 14.5749 39.0473 13.8376C39.0473 13.1004 38.4399 12.5027 37.6905 12.5027C36.9412 12.5027 36.3337 13.1004 36.3337 13.8376C36.3337 14.5749 36.9412 15.1726 37.6905 15.1726Z" fill="#E9673C"/>
<path fill-rule="evenodd" clip-rule="evenodd" d="M37.0167 12.6788C37.2151 12.5668 37.4452 12.5027 37.6903 12.5027C38.4392 12.5027 39.0471 13.1009 39.0471 13.8376C39.0471 14.3321 38.7732 14.7641 38.3668 14.9948L37.9345 14.253C38.0232 14.2798 38.1258 14.2709 38.2166 14.2201C38.3834 14.1267 38.4469 13.9269 38.3586 13.7742C38.2703 13.6215 38.0631 13.5734 37.8963 13.6668C37.8051 13.718 37.7445 13.801 37.7232 13.8907L37.0167 12.6788Z" fill="black"/>
<path fill-rule="evenodd" clip-rule="evenodd" d="M41.5549 20.9076L41.5599 20.9047C41.5599 20.9047 42.033 21.3006 42.3113 21.5333C42.3276 21.5469 42.3315 21.5699 42.3206 21.588C42.3097 21.6061 42.287 21.6139 42.2672 21.6061L41.1559 21.1818L41.5817 20.9298L41.5549 20.9076ZM34.618 20.506L35.6878 19.6113C35.7157 19.5878 35.7566 19.5864 35.7863 19.6079C35.8158 19.6294 35.8267 19.6681 35.8122 19.7014L35.2575 20.9838C35.076 20.8262 34.9049 20.6346 34.7499 20.4024C34.7499 20.4024 34.7031 20.4388 34.618 20.506ZM40.0857 19.6918C40.1719 19.3444 40.2611 18.7773 40.2273 18.0743C40.2257 18.044 40.2461 18.017 40.2759 18.0094C40.3056 18.0018 40.3367 18.0158 40.3503 18.043C40.5436 18.4332 40.8468 19.2334 40.7059 20.2052L40.0857 19.6918Z" fill="#76200A"/>
<path fill-rule="evenodd" clip-rule="evenodd" d="M30.3324 38.7198C30.3324 38.7198 30.6599 38.0274 31.3298 37.9053C31.7354 33.615 32.5254 29.4298 33.8716 25.1337C34.4044 23.4361 36.1432 22.3989 37.9195 22.7191C38.4322 22.8113 38.9155 23.0134 39.2952 23.3858C39.4636 23.5513 40.6732 25.0104 40.2166 27.2899C40.0718 28.012 39.7763 28.8616 39.5709 29.4247C39.5709 29.4247 43.1498 33.6353 43.6252 34.1948C43.6563 34.2312 43.6604 34.2832 43.6357 34.3243C43.2939 34.8876 40.956 38.7423 40.956 38.7423C40.956 38.7423 40.5454 38.3529 40.6988 37.5476L37.7089 34.3214C37.7089 34.3214 36.1898 37.9296 35.9158 38.5798C35.8904 38.6403 35.8307 38.6798 35.7642 38.6803C34.9861 38.6861 30.3324 38.7198 30.3324 38.7198Z" fill="url(#paint0_linear)"/>
<path fill-rule="evenodd" clip-rule="evenodd" d="M31.366 37.533L36.2915 37.6875L36.2173 37.8639L31.3485 37.7112C31.3542 37.6518 31.3601 37.5922 31.366 37.533ZM42.9379 33.3858L40.6129 37.4546L40.4842 37.3158L42.8133 33.2391L42.9379 33.3858ZM39.6207 29.2873C39.6037 29.3344 39.5871 29.3802 39.571 29.4244L39.7362 29.6186L37.8689 34.4935L37.7089 34.3209L37.5263 34.755L39.6207 29.2873ZM38.6689 22.9526C38.7372 22.985 38.8041 23.0205 38.8693 23.0591C38.8938 23.1636 38.9458 23.2817 39.0445 23.4034C39.202 23.5972 40.3984 24.5381 40.1923 26.8547C40.1801 26.9926 40.1978 27.1012 40.2366 27.1838C40.2302 27.2186 40.2237 27.2541 40.2164 27.2896C40.2078 27.3334 40.1985 27.3776 40.1885 27.4222C40.1753 27.4093 40.1624 27.3959 40.1501 27.3811C40.0521 27.2655 39.989 27.0907 40.0115 26.839C40.21 24.6071 39.0545 23.7017 38.9029 23.5151C38.7358 23.3096 38.6791 23.1116 38.6689 22.9526Z" fill="#D9512E"/>
<path fill-rule="evenodd" clip-rule="evenodd" d="M21.4152 28.9873C20.3833 33.1959 17.7113 37.9689 17.7113 37.9689C18.2074 37.9214 18.7583 38.748 18.7583 38.748C18.7583 38.748 13.7487 38.748 12.3039 38.748C12.2186 38.748 12.1389 38.7058 12.092 38.6357C12.045 38.5655 12.037 38.4769 12.0707 38.3999C13.8646 34.2424 15.2165 28.9739 15.3899 28.1708C16.582 22.6511 18.647 22.5984 19.5385 22.7701C19.7917 22.8187 20.0207 22.8902 20.2258 22.9822C22.3607 23.4346 25.6513 24.8966 27.4541 26.2264C28.0199 26.6469 28.2899 27.3498 28.1479 28.0332C27.8394 29.527 27.202 30.9042 26.4594 32.4254C27.1931 32.8031 27.3797 33.2702 27.3797 33.2702C27.3797 33.2702 23.59 32.9798 22.69 32.911C22.6423 32.9072 22.5985 32.8833 22.5701 32.8453C22.5418 32.8076 22.5315 32.7594 22.5422 32.7134C22.6995 32.0317 23.2428 29.6779 23.2428 29.6779C22.5903 29.506 21.9726 29.2876 21.4152 28.9873Z" fill="url(#paint1_linear)"/>
<path fill-rule="evenodd" clip-rule="evenodd" d="M12.8255 36.5259L18.3094 36.8376C18.2708 36.9135 18.2336 36.9858 18.1979 37.055L12.7422 36.7449C12.77 36.6721 12.7978 36.5991 12.8255 36.5259ZM26.7614 31.8006L22.757 31.7818L22.8086 31.5588L26.8669 31.5778C26.8322 31.6517 26.797 31.726 26.7614 31.8006ZM19.4085 22.7484C19.4541 22.7546 19.4975 22.762 19.5384 22.77C19.7916 22.8187 20.0206 22.8902 20.2258 22.9822C20.3134 23.0007 20.4028 23.021 20.494 23.0429C20.7089 23.2083 20.9331 23.4256 21.1394 23.71C21.8019 24.6239 22.2848 26.2438 21.6108 29.088C21.5447 29.0554 21.4796 29.0219 21.4151 28.9873C21.3695 29.1733 21.3207 29.3604 21.2692 29.5477C21.267 29.533 21.2676 29.5176 21.2717 29.5024C22.0898 26.4644 21.6305 24.772 20.9547 23.8398C20.297 22.9324 19.4428 22.7609 19.4428 22.7609C19.4304 22.7584 19.4189 22.7542 19.4085 22.7484Z" fill="#8ABBB8"/>
<path fill-rule="evenodd" clip-rule="evenodd" d="M22.9911 29.6089V29.6077C22.9911 29.6077 23.7121 29.8152 24.4288 29.9045C24.4669 29.9081 24.4971 29.9384 24.4998 29.9762C24.5028 30.0139 24.4778 30.0483 24.4404 30.0574C23.9913 30.17 23.3379 30.3334 23.0763 30.3988L23.2426 29.6781C23.1582 29.6557 23.0744 29.6328 22.9911 29.6089Z" fill="#8ABBB8"/>
<path fill-rule="evenodd" clip-rule="evenodd" d="M15.7448 23.8002C15.7448 23.8002 15.8256 24.0027 15.9627 24.1304C16.0404 24.2028 16.1934 24.2351 16.3304 24.1449C16.5897 23.9741 16.7819 23.5465 16.7385 23.0841C16.7273 22.9645 16.3936 21.9932 15.5305 21.4629L16.3304 21.0116C16.3304 21.0116 18.1474 23.0457 20.7053 21.2968C20.7053 21.2968 23.0512 23.0846 26.5445 24.3503L27.6379 22.8198C27.6379 22.8198 28.9875 22.5675 29.2351 22.1839C29.2725 22.126 29.3161 21.9724 29.0299 21.9503C28.9005 21.9403 27.9075 21.8092 26.1503 20.8676C25.6682 20.6091 24.0803 19.816 21.9634 17.7479C21.5182 17.3128 18.691 14.5122 14.3333 17.7479C13.5685 18.3157 10.5543 20.6144 9.16542 22.7836C8.58945 23.6856 8.69675 24.855 9.42758 25.6409C9.42749 25.6409 9.42749 25.6409 9.42749 25.6409C10.0961 26.3599 11.1877 26.5144 12.035 26.0098C13.5632 25.0997 15.7448 23.8002 15.7448 23.8002Z" fill="#ABD1CE"/>
<path fill-rule="evenodd" clip-rule="evenodd" d="M15.7217 23.8138L16.0711 23.5843C16.1242 23.5517 16.1943 23.5675 16.2275 23.6198C16.2607 23.672 16.2446 23.7408 16.1915 23.7736L15.8449 23.9871C15.7807 23.8895 15.745 23.8 15.745 23.8L15.7217 23.8138ZM27.6292 22.8316L27.6217 22.8423C27.6126 22.8439 27.6078 22.845 27.6078 22.845L27.437 23.0841C27.2443 23.1103 27.0838 23.1308 27.0838 23.1308C27.0217 23.1386 26.9647 23.0953 26.9568 23.0341C26.9488 22.9732 26.9928 22.9171 27.0548 22.9093C27.0548 22.9093 27.358 22.8709 27.6292 22.8316Z" fill="#8ABBB8"/>
<path fill-rule="evenodd" clip-rule="evenodd" d="M14.9527 24.2684L12.0352 26.0084C11.188 26.5137 10.096 26.3596 9.4273 25.6405C9.4273 25.6405 9.42727 25.6405 9.42739 25.6405C8.69682 24.8547 8.58952 23.6859 9.1652 22.7843C10.5539 20.6151 13.5687 18.3158 14.3335 17.7479C18.6912 14.5122 21.5184 17.3128 21.9637 17.7479C24.0806 19.816 25.6685 20.6091 26.1505 20.8676C26.3978 21 26.6298 21.1166 26.8465 21.2189L25.1288 23.7859C22.4321 22.6128 20.7055 21.2968 20.7055 21.2968C18.1476 23.0457 16.3306 21.0116 16.3306 21.0116L15.5288 21.4674C14.5661 20.7785 13.3384 21.5946 13.3384 21.5946L14.9527 24.2684Z" fill="#86B8B5"/>
<path fill-rule="evenodd" clip-rule="evenodd" d="M13.358 21.5825C13.3453 21.5905 13.3386 21.5948 13.3386 21.5948L13.4538 21.7857C12.4795 22.3291 11.5025 22.9139 10.5186 23.5141C10.4654 23.5464 10.3954 23.5304 10.3624 23.4779C10.3294 23.4256 10.3458 23.3567 10.399 23.3243C11.3909 22.7192 12.3758 22.13 13.358 21.5825ZM20.6535 21.3322C20.8323 21.1636 21.4587 20.4951 21.6602 19.2405C21.6645 19.2135 21.6877 19.1933 21.7154 19.1923C21.7433 19.1913 21.7678 19.2097 21.7742 19.2363C21.8307 19.5577 21.8785 20.1082 21.7331 20.7793C21.6659 21.0884 21.5579 21.4233 21.3908 21.7729C20.9474 21.4811 20.7057 21.2969 20.7057 21.2969C20.6885 21.3087 20.671 21.3206 20.6535 21.3322ZM15.7194 21.3592C15.5152 20.8894 15.5377 20.465 15.5848 20.21C15.5922 20.1707 15.6241 20.1401 15.6644 20.1338C15.7047 20.1274 15.7446 20.1468 15.7641 20.1821C15.9905 20.6025 16.2074 20.8756 16.3289 21.0129L15.7194 21.3592Z" fill="#1F5753"/>
<path fill-rule="evenodd" clip-rule="evenodd" d="M29.8873 23.473C29.7917 23.3598 29.7799 23.1939 29.8691 23.0671C29.9762 22.9143 30.1893 22.8759 30.3446 22.9815L30.8702 23.3388C31.0252 23.4442 31.0642 23.6538 30.9568 23.8066C30.8593 23.9457 30.6736 23.9897 30.5241 23.9166C30.6071 24.0272 30.6139 24.1817 30.5302 24.3009C30.4344 24.4376 30.2526 24.4811 30.1058 24.4099C30.1877 24.5184 30.1948 24.6707 30.1122 24.7881C30.0182 24.9221 29.8401 24.9649 29.6957 24.8955C29.7768 25.0024 29.7836 25.1525 29.7025 25.2679C29.6007 25.4131 29.3982 25.4495 29.2507 25.3492L28.8297 25.063C28.6825 24.9627 28.6452 24.7635 28.7471 24.6186C28.8345 24.4945 28.9954 24.4498 29.1325 24.5025C29.0399 24.3933 29.0285 24.2326 29.1145 24.11C29.2033 23.9836 29.3671 23.9383 29.5065 23.9921C29.4125 23.8809 29.4009 23.7175 29.4885 23.5929C29.5789 23.4643 29.7454 23.4183 29.8873 23.473Z" fill="#ABD1CE"/>
<path fill-rule="evenodd" clip-rule="evenodd" d="M29.0614 24.237L29.9871 24.895C29.8972 24.9386 29.7894 24.9408 29.6959 24.8957C29.702 24.9038 29.1277 24.501 29.1326 24.5027C29.0698 24.4286 29.0444 24.3306 29.0614 24.237ZM29.4327 23.7329C29.4345 23.734 29.4361 23.7351 29.4377 23.7362L30.3833 24.4083C30.3863 24.4103 30.389 24.4125 30.3915 24.415C30.3023 24.4543 30.1972 24.4543 30.106 24.4101C30.1155 24.4228 29.4953 23.9879 29.5066 23.9923C29.4454 23.9198 29.419 23.8249 29.4327 23.7329ZM29.8132 23.2039C29.8173 23.2059 29.8212 23.2084 29.825 23.2111L30.7707 23.8831C30.7868 23.8945 30.7979 23.9102 30.8036 23.9273C30.7151 23.9624 30.6132 23.9604 30.5242 23.9169C30.5297 23.9242 29.8847 23.4721 29.8874 23.4732C29.8239 23.3977 29.7974 23.299 29.8132 23.2039Z" fill="#8ABBB8"/>
<path fill-rule="evenodd" clip-rule="evenodd" d="M40.1349 34.474C40.1349 34.332 40.018 34.217 39.8739 34.217C38.7724 34.217 34.5107 34.217 33.4093 34.217C33.2652 34.217 33.1483 34.332 33.1483 34.474C33.1483 35.454 33.1483 38.9039 33.1483 38.9039H40.1349V34.474Z" fill="black"/>
<path fill-rule="evenodd" clip-rule="evenodd" d="M35.3427 34.2172V33.5987C35.3427 33.4821 35.4389 33.3877 35.5574 33.3877H37.7256C37.844 33.3877 37.94 33.4821 37.94 33.5987V34.2172H37.5111V33.8097H35.7718V34.2172H35.3427Z" fill="black"/>
<path fill-rule="evenodd" clip-rule="evenodd" d="M40.0707 34.3054C40.1106 34.3505 40.1349 34.4095 40.1349 34.474V34.5336L36.9308 36.7349C36.7571 36.8542 36.5261 36.8544 36.3523 36.7354L33.1483 34.541V34.474C33.1483 34.4117 33.1708 34.3545 33.2083 34.3101L36.4821 36.5521C36.5779 36.6177 36.7052 36.6175 36.8007 36.5518L40.0707 34.3054Z" fill="white"/>
<defs>
<filter id="filter0_d" x="0.112808" y="10.9092" width="54.8342" height="34.2068" filterUnits="userSpaceOnUse" color-interpolation-filters="sRGB">
<feFlood flood-opacity="0" result="BackgroundImageFix"/>
<feColorMatrix in="SourceAlpha" type="matrix" values="0 0 0 0 0 0 0 0 0 0 0 0 0 0 0 0 0 0 127 0"/>
<feOffset dy="4"/>
<feGaussianBlur stdDeviation="2"/>
<feColorMatrix type="matrix" values="0 0 0 0 0 0 0 0 0 0 0 0 0 0 0 0 0 0 0.25 0"/>
<feBlend mode="normal" in2="BackgroundImageFix" result="effect1_dropShadow"/>
<feBlend mode="normal" in="SourceGraphic" in2="effect1_dropShadow" result="shape"/>
</filter>
<filter id="filter1_d" x="3.59331" y="11.1614" width="48.3577" height="30.6265" filterUnits="userSpaceOnUse" color-interpolation-filters="sRGB">
<feFlood flood-opacity="0" result="BackgroundImageFix"/>
<feColorMatrix in="SourceAlpha" type="matrix" values="0 0 0 0 0 0 0 0 0 0 0 0 0 0 0 0 0 0 127 0"/>
<feOffset dy="4"/>
<feGaussianBlur stdDeviation="2"/>
<feColorMatrix type="matrix" values="0 0 0 0 0 0 0 0 0 0 0 0 0 0 0 0 0 0 0.25 0"/>
<feBlend mode="normal" in2="BackgroundImageFix" result="effect1_dropShadow"/>
<feBlend mode="normal" in="SourceGraphic" in2="effect1_dropShadow" result="shape"/>
</filter>
<linearGradient id="paint0_linear" x1="37.0047" y1="30.6978" x2="29.0074" y2="11.7295" gradientUnits="userSpaceOnUse">
<stop stop-color="#E9673C"/>
<stop offset="1" stop-color="#FFBDB4"/>
</linearGradient>
<linearGradient id="paint1_linear" x1="21.4436" y1="34.3453" x2="33.5079" y2="24.8844" gradientUnits="userSpaceOnUse">
<stop stop-color="#ABD1CE"/>
<stop offset="0.52" stop-color="#BFDCD9"/>
<stop offset="1" stop-color="white"/>
</linearGradient>
</defs>
</svg>
